<svg xmlns="http://www.w3.org/2000/svg" xmlns:xlink="http://www.w3.org/1999/xlink" width="500" zoomAndPan="magnify" viewBox="0 0 375 374.999991" height="500" preserveAspectRatio="xMidYMid meet" version="1.0"><defs><g/></defs><g fill="#ffffff" fill-opacity="1"><g transform="translate(69.181642, 158.04995)"><g><path d="M 24.546875 0 L 2.640625 0 L 2.640625 -1.140625 C 4.753906 -1.140625 6.296875 -1.429688 7.265625 -2.015625 C 8.234375 -2.609375 8.71875 -3.898438 8.71875 -5.890625 L 8.71875 -58.25 C 8.71875 -60.3125 8.234375 -61.617188 7.265625 -62.171875 C 6.296875 -62.734375 4.753906 -63.015625 2.640625 -63.015625 L 2.640625 -64.15625 L 45.40625 -64.15625 L 50.078125 -50.15625 L 48.921875 -50.15625 C 47.398438 -54.144531 45.671875 -57.035156 43.734375 -58.828125 C 41.796875 -60.617188 39.609375 -61.75 37.171875 -62.21875 C 34.742188 -62.6875 31.972656 -62.953125 28.859375 -63.015625 L 18.484375 -63.015625 L 18.484375 -34.234375 L 28.6875 -34.234375 C 31.675781 -34.285156 33.890625 -34.738281 35.328125 -35.59375 C 36.765625 -36.445312 37.703125 -37.851562 38.140625 -39.8125 C 38.585938 -41.78125 38.8125 -44.410156 38.8125 -47.703125 L 39.953125 -47.703125 L 39.953125 -18.5625 L 38.8125 -18.5625 C 38.8125 -22.257812 38.585938 -25.164062 38.140625 -27.28125 C 37.703125 -29.394531 36.765625 -30.890625 35.328125 -31.765625 C 33.890625 -32.648438 31.675781 -33.09375 28.6875 -33.09375 L 18.484375 -33.09375 L 18.484375 -5.71875 C 18.484375 -3.726562 18.976562 -2.453125 19.96875 -1.890625 C 20.96875 -1.335938 22.492188 -1.0625 24.546875 -1.0625 Z M 24.546875 0 "/></g></g></g><g fill="#ffffff" fill-opacity="1"><g transform="translate(120.571367, 158.04995)"><g><path d="M 4.40625 -32.203125 C 4.40625 -36.785156 5.222656 -41.070312 6.859375 -45.0625 C 8.503906 -49.050781 10.765625 -52.539062 13.640625 -55.53125 C 16.515625 -58.519531 19.859375 -60.863281 23.671875 -62.5625 C 27.484375 -64.269531 31.5625 -65.125 35.90625 -65.125 C 40.25 -65.125 44.335938 -64.269531 48.171875 -62.5625 C 52.015625 -60.863281 55.40625 -58.519531 58.34375 -55.53125 C 61.28125 -52.539062 63.566406 -49.050781 65.203125 -45.0625 C 66.847656 -41.070312 67.671875 -36.785156 67.671875 -32.203125 C 67.671875 -27.628906 66.847656 -23.332031 65.203125 -19.3125 C 63.566406 -15.289062 61.28125 -11.753906 58.34375 -8.703125 C 55.40625 -5.660156 52.015625 -3.269531 48.171875 -1.53125 C 44.335938 0.195312 40.25 1.0625 35.90625 1.0625 C 31.5625 1.0625 27.484375 0.195312 23.671875 -1.53125 C 19.859375 -3.269531 16.515625 -5.660156 13.640625 -8.703125 C 10.765625 -11.753906 8.503906 -15.289062 6.859375 -19.3125 C 5.222656 -23.332031 4.40625 -27.628906 4.40625 -32.203125 Z M 35.03125 -63.890625 C 31.6875 -63.890625 28.765625 -63.066406 26.265625 -61.421875 C 23.773438 -59.773438 21.691406 -57.515625 20.015625 -54.640625 C 18.347656 -51.773438 17.085938 -48.492188 16.234375 -44.796875 C 15.378906 -41.097656 14.953125 -37.222656 14.953125 -33.171875 C 14.953125 -28.953125 15.378906 -24.859375 16.234375 -20.890625 C 17.085938 -16.929688 18.394531 -13.394531 20.15625 -10.28125 C 21.914062 -7.175781 24.171875 -4.710938 26.921875 -2.890625 C 29.679688 -1.078125 32.96875 -0.171875 36.78125 -0.171875 C 40.300781 -0.171875 43.335938 -0.992188 45.890625 -2.640625 C 48.441406 -4.285156 50.550781 -6.53125 52.21875 -9.375 C 53.894531 -12.21875 55.128906 -15.515625 55.921875 -19.265625 C 56.710938 -23.023438 57.109375 -27.015625 57.109375 -31.234375 C 57.109375 -35.347656 56.695312 -39.335938 55.875 -43.203125 C 55.050781 -47.078125 53.757812 -50.566406 52 -53.671875 C 50.25 -56.785156 47.960938 -59.265625 45.140625 -61.109375 C 42.328125 -62.960938 38.957031 -63.890625 35.03125 -63.890625 Z M 35.03125 -63.890625 "/></g></g></g><g fill="#ffffff" fill-opacity="1"><g transform="translate(192.640186, 158.04995)"><g><path d="M 24.546875 0 L 2.640625 0 L 2.640625 -1.140625 C 4.753906 -1.140625 6.296875 -1.429688 7.265625 -2.015625 C 8.234375 -2.609375 8.71875 -3.898438 8.71875 -5.890625 L 8.71875 -58.25 C 8.71875 -60.3125 8.234375 -61.617188 7.265625 -62.171875 C 6.296875 -62.734375 4.753906 -63.015625 2.640625 -63.015625 L 2.640625 -64.15625 L 45.40625 -64.15625 L 50.078125 -50.15625 L 48.921875 -50.15625 C 47.398438 -54.144531 45.671875 -57.035156 43.734375 -58.828125 C 41.796875 -60.617188 39.609375 -61.75 37.171875 -62.21875 C 34.742188 -62.6875 31.972656 -62.953125 28.859375 -63.015625 L 18.484375 -63.015625 L 18.484375 -34.234375 L 28.6875 -34.234375 C 31.675781 -34.285156 33.890625 -34.738281 35.328125 -35.59375 C 36.765625 -36.445312 37.703125 -37.851562 38.140625 -39.8125 C 38.585938 -41.78125 38.8125 -44.410156 38.8125 -47.703125 L 39.953125 -47.703125 L 39.953125 -18.5625 L 38.8125 -18.5625 C 38.8125 -22.257812 38.585938 -25.164062 38.140625 -27.28125 C 37.703125 -29.394531 36.765625 -30.890625 35.328125 -31.765625 C 33.890625 -32.648438 31.675781 -33.09375 28.6875 -33.09375 L 18.484375 -33.09375 L 18.484375 -5.71875 C 18.484375 -3.726562 18.976562 -2.453125 19.96875 -1.890625 C 20.96875 -1.335938 22.492188 -1.0625 24.546875 -1.0625 Z M 24.546875 0 "/></g></g></g><g fill="#ffffff" fill-opacity="1"><g transform="translate(238.750054, 158.04995)"><g><path d="M 15.046875 0 L 1.3125 0 L 1.3125 -1.140625 C 2.78125 -1.140625 4.265625 -1.664062 5.765625 -2.71875 C 7.265625 -3.78125 8.332031 -5.101562 8.96875 -6.6875 L 28.15625 -52.625 L 25.703125 -58.609375 C 24.992188 -60.367188 23.90625 -61.539062 22.4375 -62.125 C 20.96875 -62.71875 19.351562 -63.015625 17.59375 -63.015625 L 17.59375 -64.15625 L 33 -64.15625 L 56.140625 -8.890625 C 57.367188 -6.015625 58.734375 -4.003906 60.234375 -2.859375 C 61.734375 -1.710938 63.566406 -1.140625 65.734375 -1.140625 L 65.734375 0 L 41.015625 0 L 41.015625 -1.140625 L 43.390625 -1.140625 C 45.671875 -1.140625 46.972656 -1.882812 47.296875 -3.375 C 47.617188 -4.875 47.34375 -6.679688 46.46875 -8.796875 L 41.453125 -21.03125 L 16.109375 -21.03125 L 10.296875 -7.046875 C 9.535156 -5.160156 9.679688 -3.703125 10.734375 -2.671875 C 11.785156 -1.648438 13.222656 -1.140625 15.046875 -1.140625 Z M 28.78125 -51.296875 L 16.625 -22.171875 L 40.921875 -22.171875 Z M 28.78125 -51.296875 "/></g></g></g><g fill="#ffffff" fill-opacity="1"><g transform="translate(56.650121, 226.955435)"><g><path d="M 2.734375 0 L 0.234375 0 L 0.234375 -0.203125 C 0.503906 -0.203125 0.773438 -0.296875 1.046875 -0.484375 C 1.316406 -0.679688 1.507812 -0.925781 1.625 -1.21875 L 5.125 -9.5625 L 4.671875 -10.65625 C 4.546875 -10.976562 4.347656 -11.191406 4.078125 -11.296875 C 3.816406 -11.398438 3.523438 -11.453125 3.203125 -11.453125 L 3.203125 -11.65625 L 6 -11.65625 L 10.203125 -1.609375 C 10.429688 -1.085938 10.679688 -0.722656 10.953125 -0.515625 C 11.222656 -0.304688 11.554688 -0.203125 11.953125 -0.203125 L 11.953125 0 L 7.453125 0 L 7.453125 -0.203125 L 7.890625 -0.203125 C 8.304688 -0.203125 8.539062 -0.335938 8.59375 -0.609375 C 8.65625 -0.890625 8.609375 -1.21875 8.453125 -1.59375 L 7.53125 -3.828125 L 2.921875 -3.828125 L 1.875 -1.28125 C 1.726562 -0.9375 1.75 -0.671875 1.9375 -0.484375 C 2.132812 -0.296875 2.398438 -0.203125 2.734375 -0.203125 Z M 5.234375 -9.328125 L 3.03125 -4.03125 L 7.4375 -4.03125 Z M 5.234375 -9.328125 "/></g></g></g><g fill="#ffffff" fill-opacity="1"><g transform="translate(73.687306, 226.955435)"><g><path d="M 6.40625 0.1875 C 5.300781 0.1875 4.328125 -0.0546875 3.484375 -0.546875 C 2.640625 -1.046875 1.976562 -1.726562 1.5 -2.59375 C 1.03125 -3.46875 0.796875 -4.460938 0.796875 -5.578125 C 0.796875 -6.441406 0.921875 -7.253906 1.171875 -8.015625 C 1.429688 -8.773438 1.804688 -9.441406 2.296875 -10.015625 C 2.796875 -10.585938 3.394531 -11.035156 4.09375 -11.359375 C 4.789062 -11.679688 5.582031 -11.84375 6.46875 -11.84375 C 6.976562 -11.84375 7.398438 -11.78125 7.734375 -11.65625 C 8.078125 -11.539062 8.363281 -11.425781 8.59375 -11.3125 C 8.832031 -11.195312 9.039062 -11.140625 9.21875 -11.140625 C 9.3125 -11.140625 9.40625 -11.171875 9.5 -11.234375 C 9.59375 -11.304688 9.640625 -11.445312 9.640625 -11.65625 L 9.859375 -11.65625 L 9.859375 -7.640625 L 9.65625 -7.640625 C 9.65625 -8.984375 9.382812 -9.953125 8.84375 -10.546875 C 8.300781 -11.148438 7.554688 -11.453125 6.609375 -11.453125 C 5.890625 -11.453125 5.238281 -11.257812 4.65625 -10.875 C 4.070312 -10.488281 3.601562 -9.914062 3.25 -9.15625 C 2.894531 -8.40625 2.71875 -7.472656 2.71875 -6.359375 C 2.71875 -5.242188 2.894531 -4.253906 3.25 -3.390625 C 3.601562 -2.535156 4.113281 -1.867188 4.78125 -1.390625 C 5.445312 -0.910156 6.238281 -0.671875 7.15625 -0.671875 C 7.914062 -0.671875 8.546875 -0.84375 9.046875 -1.1875 C 9.546875 -1.53125 9.910156 -1.972656 10.140625 -2.515625 C 10.378906 -3.066406 10.5 -3.65625 10.5 -4.28125 L 10.703125 -4.28125 C 10.703125 -3.726562 10.617188 -3.1875 10.453125 -2.65625 C 10.285156 -2.125 10.023438 -1.640625 9.671875 -1.203125 C 9.328125 -0.773438 8.882812 -0.4375 8.34375 -0.1875 C 7.800781 0.0625 7.15625 0.1875 6.40625 0.1875 Z M 6.40625 0.1875 "/></g></g></g><g fill="#ffffff" fill-opacity="1"><g transform="translate(89.796706, 226.955435)"><g><path d="M 2.734375 0 L 0.234375 0 L 0.234375 -0.203125 C 0.503906 -0.203125 0.773438 -0.296875 1.046875 -0.484375 C 1.316406 -0.679688 1.507812 -0.925781 1.625 -1.21875 L 5.125 -9.5625 L 4.671875 -10.65625 C 4.546875 -10.976562 4.347656 -11.191406 4.078125 -11.296875 C 3.816406 -11.398438 3.523438 -11.453125 3.203125 -11.453125 L 3.203125 -11.65625 L 6 -11.65625 L 10.203125 -1.609375 C 10.429688 -1.085938 10.679688 -0.722656 10.953125 -0.515625 C 11.222656 -0.304688 11.554688 -0.203125 11.953125 -0.203125 L 11.953125 0 L 7.453125 0 L 7.453125 -0.203125 L 7.890625 -0.203125 C 8.304688 -0.203125 8.539062 -0.335938 8.59375 -0.609375 C 8.65625 -0.890625 8.609375 -1.21875 8.453125 -1.59375 L 7.53125 -3.828125 L 2.921875 -3.828125 L 1.875 -1.28125 C 1.726562 -0.9375 1.75 -0.671875 1.9375 -0.484375 C 2.132812 -0.296875 2.398438 -0.203125 2.734375 -0.203125 Z M 5.234375 -9.328125 L 3.03125 -4.03125 L 7.4375 -4.03125 Z M 5.234375 -9.328125 "/></g></g></g><g fill="#ffffff" fill-opacity="1"><g transform="translate(107.633764, 226.955435)"><g><path d="M 0.484375 0 L 0.484375 -0.203125 C 0.867188 -0.203125 1.144531 -0.253906 1.3125 -0.359375 C 1.488281 -0.460938 1.578125 -0.703125 1.578125 -1.078125 L 1.578125 -10.59375 C 1.578125 -10.96875 1.488281 -11.203125 1.3125 -11.296875 C 1.144531 -11.398438 0.867188 -11.453125 0.484375 -11.453125 L 0.484375 -11.65625 L 5.703125 -11.65625 C 6.128906 -11.65625 6.609375 -11.617188 7.140625 -11.546875 C 7.671875 -11.484375 8.203125 -11.347656 8.734375 -11.140625 C 9.273438 -10.929688 9.773438 -10.617188 10.234375 -10.203125 C 10.691406 -9.785156 11.0625 -9.234375 11.34375 -8.546875 C 11.625 -7.867188 11.765625 -7.015625 11.765625 -5.984375 C 11.765625 -5.203125 11.65625 -4.453125 11.4375 -3.734375 C 11.21875 -3.015625 10.851562 -2.375 10.34375 -1.8125 C 9.84375 -1.25 9.175781 -0.804688 8.34375 -0.484375 C 7.519531 -0.160156 6.5 0 5.28125 0 Z M 5.140625 -0.203125 C 6.140625 -0.203125 6.957031 -0.375 7.59375 -0.71875 C 8.238281 -1.0625 8.734375 -1.515625 9.078125 -2.078125 C 9.429688 -2.648438 9.675781 -3.273438 9.8125 -3.953125 C 9.945312 -4.628906 10.015625 -5.304688 10.015625 -5.984375 C 10.015625 -7.203125 9.8125 -8.210938 9.40625 -9.015625 C 9.007812 -9.828125 8.460938 -10.4375 7.765625 -10.84375 C 7.078125 -11.25 6.289062 -11.453125 5.40625 -11.453125 C 4.65625 -11.453125 4.125 -11.398438 3.8125 -11.296875 C 3.5 -11.203125 3.34375 -10.972656 3.34375 -10.609375 L 3.34375 -1.078125 C 3.34375 -0.710938 3.476562 -0.472656 3.75 -0.359375 C 4.019531 -0.253906 4.484375 -0.203125 5.140625 -0.203125 Z M 5.140625 -0.203125 "/></g></g></g><g fill="#ffffff" fill-opacity="1"><g transform="translate(125.838738, 226.955435)"><g><path d="M 0.484375 0 L 0.484375 -0.203125 C 0.835938 -0.203125 1.101562 -0.242188 1.28125 -0.328125 C 1.457031 -0.421875 1.5625 -0.613281 1.59375 -0.90625 L 1.578125 -10.59375 C 1.578125 -10.96875 1.488281 -11.203125 1.3125 -11.296875 C 1.144531 -11.398438 0.867188 -11.453125 0.484375 -11.453125 L 0.484375 -11.65625 L 8.75 -11.65625 L 9.59375 -9.140625 L 9.390625 -9.140625 C 9.203125 -9.742188 8.984375 -10.210938 8.734375 -10.546875 C 8.492188 -10.890625 8.179688 -11.125 7.796875 -11.25 C 7.421875 -11.375 6.925781 -11.4375 6.3125 -11.4375 C 5.550781 -11.4375 4.957031 -11.414062 4.53125 -11.375 C 4.101562 -11.34375 3.800781 -11.265625 3.625 -11.140625 C 3.445312 -11.023438 3.359375 -10.84375 3.359375 -10.59375 L 3.359375 -6.21875 L 5.203125 -6.21875 C 5.773438 -6.226562 6.191406 -6.320312 6.453125 -6.5 C 6.710938 -6.6875 6.875 -6.960938 6.9375 -7.328125 C 7.007812 -7.691406 7.046875 -8.140625 7.046875 -8.671875 L 7.25 -8.671875 L 7.25 -3.375 L 7.046875 -3.375 C 7.046875 -3.914062 7.015625 -4.382812 6.953125 -4.78125 C 6.898438 -5.175781 6.75 -5.476562 6.5 -5.6875 C 6.25 -5.90625 5.816406 -6.015625 5.203125 -6.015625 L 3.359375 -6.015625 L 3.359375 -1.078125 C 3.359375 -0.710938 3.507812 -0.472656 3.8125 -0.359375 C 4.125 -0.253906 4.6875 -0.203125 5.5 -0.203125 C 6.414062 -0.203125 7.164062 -0.394531 7.75 -0.78125 C 8.332031 -1.175781 8.800781 -1.707031 9.15625 -2.375 C 9.519531 -3.039062 9.820312 -3.78125 10.0625 -4.59375 L 10.265625 -4.59375 L 9.140625 0 Z M 0.484375 0 "/></g></g></g><g fill="#ffffff" fill-opacity="1"><g transform="translate(142.172157, 226.955435)"><g><path d="M 0.40625 -11.453125 L 0.40625 -11.65625 L 3.34375 -11.65625 L 6.921875 -2.5 L 10.359375 -11.65625 L 13.25 -11.65625 L 13.25 -11.453125 C 12.875 -11.453125 12.59375 -11.414062 12.40625 -11.34375 C 12.21875 -11.269531 12.117188 -11.035156 12.109375 -10.640625 L 12.109375 -1.09375 C 12.109375 -0.664062 12.203125 -0.410156 12.390625 -0.328125 C 12.578125 -0.242188 12.863281 -0.203125 13.25 -0.203125 L 13.25 0 L 9.21875 0 L 9.21875 -0.203125 C 9.601562 -0.203125 9.890625 -0.242188 10.078125 -0.328125 C 10.265625 -0.410156 10.359375 -0.664062 10.359375 -1.09375 L 10.359375 -11.046875 L 6.21875 0 L 6 0 L 1.984375 -10.4375 C 1.972656 -10.457031 1.960938 -10.476562 1.953125 -10.5 C 1.953125 -10.519531 1.945312 -10.535156 1.9375 -10.546875 L 1.9375 -1.046875 C 1.945312 -0.648438 2.046875 -0.410156 2.234375 -0.328125 C 2.421875 -0.242188 2.703125 -0.203125 3.078125 -0.203125 L 3.078125 0 L 0.59375 0 L 0.59375 -0.203125 C 0.976562 -0.203125 1.265625 -0.242188 1.453125 -0.328125 C 1.640625 -0.410156 1.734375 -0.664062 1.734375 -1.09375 L 1.734375 -10.953125 C 1.585938 -11.171875 1.414062 -11.304688 1.21875 -11.359375 C 1.019531 -11.421875 0.75 -11.453125 0.40625 -11.453125 Z M 0.40625 -11.453125 "/></g></g></g><g fill="#ffffff" fill-opacity="1"><g transform="translate(161.544851, 226.955435)"><g><path d="M 1.578125 -1.078125 L 1.578125 -10.59375 C 1.578125 -10.96875 1.488281 -11.203125 1.3125 -11.296875 C 1.144531 -11.398438 0.867188 -11.453125 0.484375 -11.453125 L 0.484375 -11.65625 L 4.46875 -11.65625 L 4.46875 -11.453125 C 4.082031 -11.453125 3.796875 -11.398438 3.609375 -11.296875 C 3.429688 -11.203125 3.34375 -10.96875 3.34375 -10.59375 L 3.34375 -1.078125 C 3.34375 -0.703125 3.429688 -0.460938 3.609375 -0.359375 C 3.796875 -0.253906 4.078125 -0.203125 4.453125 -0.203125 L 4.46875 0 L 0.484375 0 L 0.484375 -0.203125 C 0.867188 -0.203125 1.144531 -0.253906 1.3125 -0.359375 C 1.488281 -0.460938 1.578125 -0.703125 1.578125 -1.078125 Z M 1.578125 -1.078125 "/></g></g></g><g fill="#ffffff" fill-opacity="1"><g transform="translate(172.135659, 226.955435)"><g><path d="M 6.40625 0.1875 C 5.300781 0.1875 4.328125 -0.0546875 3.484375 -0.546875 C 2.640625 -1.046875 1.976562 -1.726562 1.5 -2.59375 C 1.03125 -3.46875 0.796875 -4.460938 0.796875 -5.578125 C 0.796875 -6.441406 0.921875 -7.253906 1.171875 -8.015625 C 1.429688 -8.773438 1.804688 -9.441406 2.296875 -10.015625 C 2.796875 -10.585938 3.394531 -11.035156 4.09375 -11.359375 C 4.789062 -11.679688 5.582031 -11.84375 6.46875 -11.84375 C 6.976562 -11.84375 7.398438 -11.78125 7.734375 -11.65625 C 8.078125 -11.539062 8.363281 -11.425781 8.59375 -11.3125 C 8.832031 -11.195312 9.039062 -11.140625 9.21875 -11.140625 C 9.3125 -11.140625 9.40625 -11.171875 9.5 -11.234375 C 9.59375 -11.304688 9.640625 -11.445312 9.640625 -11.65625 L 9.859375 -11.65625 L 9.859375 -7.640625 L 9.65625 -7.640625 C 9.65625 -8.984375 9.382812 -9.953125 8.84375 -10.546875 C 8.300781 -11.148438 7.554688 -11.453125 6.609375 -11.453125 C 5.890625 -11.453125 5.238281 -11.257812 4.65625 -10.875 C 4.070312 -10.488281 3.601562 -9.914062 3.25 -9.15625 C 2.894531 -8.40625 2.71875 -7.472656 2.71875 -6.359375 C 2.71875 -5.242188 2.894531 -4.253906 3.25 -3.390625 C 3.601562 -2.535156 4.113281 -1.867188 4.78125 -1.390625 C 5.445312 -0.910156 6.238281 -0.671875 7.15625 -0.671875 C 7.914062 -0.671875 8.546875 -0.84375 9.046875 -1.1875 C 9.546875 -1.53125 9.910156 -1.972656 10.140625 -2.515625 C 10.378906 -3.066406 10.5 -3.65625 10.5 -4.28125 L 10.703125 -4.28125 C 10.703125 -3.726562 10.617188 -3.1875 10.453125 -2.65625 C 10.285156 -2.125 10.023438 -1.640625 9.671875 -1.203125 C 9.328125 -0.773438 8.882812 -0.4375 8.34375 -0.1875 C 7.800781 0.0625 7.15625 0.1875 6.40625 0.1875 Z M 6.40625 0.1875 "/></g></g></g><g fill="#ffffff" fill-opacity="1"><g transform="translate(189.20491, 226.955435)"><g/></g></g><g fill="#ffffff" fill-opacity="1"><g transform="translate(199.331821, 226.955435)"><g><path d="M 0.796875 0 L 0.796875 -4.796875 L 1.015625 -4.796875 C 1.015625 -3.734375 1.164062 -2.863281 1.46875 -2.1875 C 1.78125 -1.507812 2.203125 -1.007812 2.734375 -0.6875 C 3.265625 -0.363281 3.859375 -0.203125 4.515625 -0.203125 C 4.921875 -0.203125 5.289062 -0.265625 5.625 -0.390625 C 5.957031 -0.515625 6.222656 -0.71875 6.421875 -1 C 6.628906 -1.28125 6.734375 -1.65625 6.734375 -2.125 C 6.734375 -2.570312 6.59375 -2.984375 6.3125 -3.359375 C 6.03125 -3.734375 5.660156 -4.085938 5.203125 -4.421875 C 4.753906 -4.765625 4.28125 -5.101562 3.78125 -5.4375 C 3.28125 -5.78125 2.800781 -6.132812 2.34375 -6.5 C 1.882812 -6.863281 1.515625 -7.253906 1.234375 -7.671875 C 0.953125 -8.097656 0.8125 -8.570312 0.8125 -9.09375 C 0.8125 -9.707031 0.976562 -10.21875 1.3125 -10.625 C 1.65625 -11.03125 2.082031 -11.332031 2.59375 -11.53125 C 3.101562 -11.738281 3.617188 -11.84375 4.140625 -11.84375 C 4.546875 -11.84375 4.890625 -11.800781 5.171875 -11.71875 C 5.453125 -11.632812 5.691406 -11.535156 5.890625 -11.421875 C 6.097656 -11.316406 6.285156 -11.222656 6.453125 -11.140625 C 6.617188 -11.066406 6.78125 -11.03125 6.9375 -11.03125 C 7.15625 -11.03125 7.300781 -11.078125 7.375 -11.171875 C 7.445312 -11.265625 7.484375 -11.425781 7.484375 -11.65625 L 7.703125 -11.65625 L 7.703125 -7.890625 L 7.484375 -7.890625 C 7.484375 -8.597656 7.347656 -9.222656 7.078125 -9.765625 C 6.804688 -10.304688 6.4375 -10.722656 5.96875 -11.015625 C 5.5 -11.316406 4.96875 -11.46875 4.375 -11.46875 C 3.726562 -11.46875 3.265625 -11.316406 2.984375 -11.015625 C 2.710938 -10.710938 2.578125 -10.328125 2.578125 -9.859375 C 2.578125 -9.335938 2.710938 -8.875 2.984375 -8.46875 C 3.265625 -8.070312 3.625 -7.707031 4.0625 -7.375 C 4.5 -7.050781 4.960938 -6.734375 5.453125 -6.421875 C 5.941406 -6.117188 6.40625 -5.789062 6.84375 -5.4375 C 7.28125 -5.09375 7.640625 -4.707031 7.921875 -4.28125 C 8.203125 -3.851562 8.34375 -3.351562 8.34375 -2.78125 C 8.34375 -2.238281 8.234375 -1.742188 8.015625 -1.296875 C 7.796875 -0.847656 7.425781 -0.488281 6.90625 -0.21875 C 6.394531 0.0507812 5.6875 0.1875 4.78125 0.1875 C 4.34375 0.1875 3.972656 0.148438 3.671875 0.078125 C 3.378906 0.00390625 3.125 -0.0820312 2.90625 -0.1875 C 2.6875 -0.289062 2.484375 -0.378906 2.296875 -0.453125 C 2.117188 -0.523438 1.9375 -0.5625 1.75 -0.5625 C 1.257812 -0.5625 1.015625 -0.375 1.015625 0 Z M 0.796875 0 "/></g></g></g><g fill="#ffffff" fill-opacity="1"><g transform="translate(213.953662, 226.955435)"><g><path d="M 0.484375 0 L 0.484375 -0.203125 C 0.835938 -0.203125 1.101562 -0.242188 1.28125 -0.328125 C 1.457031 -0.421875 1.5625 -0.613281 1.59375 -0.90625 L 1.578125 -10.59375 C 1.578125 -10.96875 1.488281 -11.203125 1.3125 -11.296875 C 1.144531 -11.398438 0.867188 -11.453125 0.484375 -11.453125 L 0.484375 -11.65625 L 8.75 -11.65625 L 9.59375 -9.140625 L 9.390625 -9.140625 C 9.203125 -9.742188 8.984375 -10.210938 8.734375 -10.546875 C 8.492188 -10.890625 8.179688 -11.125 7.796875 -11.25 C 7.421875 -11.375 6.925781 -11.4375 6.3125 -11.4375 C 5.550781 -11.4375 4.957031 -11.414062 4.53125 -11.375 C 4.101562 -11.34375 3.800781 -11.265625 3.625 -11.140625 C 3.445312 -11.023438 3.359375 -10.84375 3.359375 -10.59375 L 3.359375 -6.21875 L 5.203125 -6.21875 C 5.773438 -6.226562 6.191406 -6.320312 6.453125 -6.5 C 6.710938 -6.6875 6.875 -6.960938 6.9375 -7.328125 C 7.007812 -7.691406 7.046875 -8.140625 7.046875 -8.671875 L 7.25 -8.671875 L 7.25 -3.375 L 7.046875 -3.375 C 7.046875 -3.914062 7.015625 -4.382812 6.953125 -4.78125 C 6.898438 -5.175781 6.75 -5.476562 6.5 -5.6875 C 6.25 -5.90625 5.816406 -6.015625 5.203125 -6.015625 L 3.359375 -6.015625 L 3.359375 -1.078125 C 3.359375 -0.710938 3.507812 -0.472656 3.8125 -0.359375 C 4.125 -0.253906 4.6875 -0.203125 5.5 -0.203125 C 6.414062 -0.203125 7.164062 -0.394531 7.75 -0.78125 C 8.332031 -1.175781 8.800781 -1.707031 9.15625 -2.375 C 9.519531 -3.039062 9.820312 -3.78125 10.0625 -4.59375 L 10.265625 -4.59375 L 9.140625 0 Z M 0.484375 0 "/></g></g></g><g fill="#ffffff" fill-opacity="1"><g transform="translate(230.28708, 226.955435)"><g><path d="M 0.484375 0 L 0.484375 -0.203125 C 0.859375 -0.203125 1.132812 -0.253906 1.3125 -0.359375 C 1.488281 -0.472656 1.578125 -0.710938 1.578125 -1.078125 L 1.578125 -10.59375 C 1.578125 -10.96875 1.488281 -11.203125 1.3125 -11.296875 C 1.132812 -11.398438 0.859375 -11.453125 0.484375 -11.453125 L 0.484375 -11.65625 L 5.03125 -11.65625 C 5.625 -11.65625 6.203125 -11.625 6.765625 -11.5625 C 7.335938 -11.507812 7.859375 -11.382812 8.328125 -11.1875 C 8.796875 -11 9.164062 -10.71875 9.4375 -10.34375 C 9.71875 -9.96875 9.859375 -9.457031 9.859375 -8.8125 C 9.859375 -8.1875 9.726562 -7.679688 9.46875 -7.296875 C 9.21875 -6.910156 8.878906 -6.613281 8.453125 -6.40625 C 8.035156 -6.207031 7.582031 -6.070312 7.09375 -6 C 6.601562 -5.9375 6.117188 -5.90625 5.640625 -5.90625 L 4.96875 -5.90625 C 5.1875 -5.570312 5.425781 -5.328125 5.6875 -5.171875 C 5.945312 -5.015625 6.207031 -4.9375 6.46875 -4.9375 C 6.757812 -4.9375 7.035156 -5.039062 7.296875 -5.25 L 10.171875 -1.078125 C 10.421875 -0.734375 10.675781 -0.5 10.9375 -0.375 C 11.207031 -0.257812 11.492188 -0.203125 11.796875 -0.203125 L 11.796875 0 L 10.203125 0 C 9.765625 0 9.382812 -0.09375 9.0625 -0.28125 C 8.738281 -0.46875 8.453125 -0.703125 8.203125 -0.984375 C 7.960938 -1.265625 7.738281 -1.550781 7.53125 -1.84375 L 4.734375 -5.90625 L 3.34375 -5.90625 L 3.34375 -1.078125 C 3.34375 -0.710938 3.429688 -0.472656 3.609375 -0.359375 C 3.785156 -0.253906 4.066406 -0.203125 4.453125 -0.203125 L 4.453125 0 Z M 3.34375 -6.109375 L 5.046875 -6.109375 C 5.609375 -6.109375 6.117188 -6.179688 6.578125 -6.328125 C 7.046875 -6.484375 7.414062 -6.753906 7.6875 -7.140625 C 7.96875 -7.535156 8.109375 -8.085938 8.109375 -8.796875 C 8.109375 -9.660156 7.867188 -10.316406 7.390625 -10.765625 C 6.910156 -11.222656 6.226562 -11.453125 5.34375 -11.453125 L 3.34375 -11.453125 Z M 3.34375 -6.109375 "/></g></g></g><g fill="#ffffff" fill-opacity="1"><g transform="translate(247.244305, 226.955435)"><g><path d="M 0.234375 -11.65625 L 4.671875 -11.65625 L 4.671875 -11.46875 C 4.140625 -11.46875 3.78125 -11.421875 3.59375 -11.328125 C 3.40625 -11.234375 3.394531 -11.003906 3.5625 -10.640625 L 7.640625 -2.203125 L 10.5625 -10.515625 C 10.675781 -10.859375 10.675781 -11.097656 10.5625 -11.234375 C 10.445312 -11.378906 10.132812 -11.453125 9.625 -11.453125 L 9.625 -11.65625 L 12.234375 -11.65625 L 12.234375 -11.453125 C 11.785156 -11.453125 11.457031 -11.390625 11.25 -11.265625 C 11.050781 -11.140625 10.890625 -10.882812 10.765625 -10.5 L 7.09375 0 L 6.84375 0.1875 L 1.6875 -10.515625 C 1.507812 -10.890625 1.332031 -11.140625 1.15625 -11.265625 C 0.976562 -11.390625 0.671875 -11.453125 0.234375 -11.453125 Z M 0.234375 -11.65625 "/></g></g></g><g fill="#ffffff" fill-opacity="1"><g transform="translate(265.369284, 226.955435)"><g><path d="M 1.578125 -1.078125 L 1.578125 -10.59375 C 1.578125 -10.96875 1.488281 -11.203125 1.3125 -11.296875 C 1.144531 -11.398438 0.867188 -11.453125 0.484375 -11.453125 L 0.484375 -11.65625 L 4.46875 -11.65625 L 4.46875 -11.453125 C 4.082031 -11.453125 3.796875 -11.398438 3.609375 -11.296875 C 3.429688 -11.203125 3.34375 -10.96875 3.34375 -10.59375 L 3.34375 -1.078125 C 3.34375 -0.703125 3.429688 -0.460938 3.609375 -0.359375 C 3.796875 -0.253906 4.078125 -0.203125 4.453125 -0.203125 L 4.46875 0 L 0.484375 0 L 0.484375 -0.203125 C 0.867188 -0.203125 1.144531 -0.253906 1.3125 -0.359375 C 1.488281 -0.460938 1.578125 -0.703125 1.578125 -1.078125 Z M 1.578125 -1.078125 "/></g></g></g><g fill="#ffffff" fill-opacity="1"><g transform="translate(275.960104, 226.955435)"><g><path d="M 6.40625 0.1875 C 5.300781 0.1875 4.328125 -0.0546875 3.484375 -0.546875 C 2.640625 -1.046875 1.976562 -1.726562 1.5 -2.59375 C 1.03125 -3.46875 0.796875 -4.460938 0.796875 -5.578125 C 0.796875 -6.441406 0.921875 -7.253906 1.171875 -8.015625 C 1.429688 -8.773438 1.804688 -9.441406 2.296875 -10.015625 C 2.796875 -10.585938 3.394531 -11.035156 4.09375 -11.359375 C 4.789062 -11.679688 5.582031 -11.84375 6.46875 -11.84375 C 6.976562 -11.84375 7.398438 -11.78125 7.734375 -11.65625 C 8.078125 -11.539062 8.363281 -11.425781 8.59375 -11.3125 C 8.832031 -11.195312 9.039062 -11.140625 9.21875 -11.140625 C 9.3125 -11.140625 9.40625 -11.171875 9.5 -11.234375 C 9.59375 -11.304688 9.640625 -11.445312 9.640625 -11.65625 L 9.859375 -11.65625 L 9.859375 -7.640625 L 9.65625 -7.640625 C 9.65625 -8.984375 9.382812 -9.953125 8.84375 -10.546875 C 8.300781 -11.148438 7.554688 -11.453125 6.609375 -11.453125 C 5.890625 -11.453125 5.238281 -11.257812 4.65625 -10.875 C 4.070312 -10.488281 3.601562 -9.914062 3.25 -9.15625 C 2.894531 -8.40625 2.71875 -7.472656 2.71875 -6.359375 C 2.71875 -5.242188 2.894531 -4.253906 3.25 -3.390625 C 3.601562 -2.535156 4.113281 -1.867188 4.78125 -1.390625 C 5.445312 -0.910156 6.238281 -0.671875 7.15625 -0.671875 C 7.914062 -0.671875 8.546875 -0.84375 9.046875 -1.1875 C 9.546875 -1.53125 9.910156 -1.972656 10.140625 -2.515625 C 10.378906 -3.066406 10.5 -3.65625 10.5 -4.28125 L 10.703125 -4.28125 C 10.703125 -3.726562 10.617188 -3.1875 10.453125 -2.65625 C 10.285156 -2.125 10.023438 -1.640625 9.671875 -1.203125 C 9.328125 -0.773438 8.882812 -0.4375 8.34375 -0.1875 C 7.800781 0.0625 7.15625 0.1875 6.40625 0.1875 Z M 6.40625 0.1875 "/></g></g></g><g fill="#ffffff" fill-opacity="1"><g transform="translate(293.029355, 226.955435)"><g><path d="M 0.484375 0 L 0.484375 -0.203125 C 0.835938 -0.203125 1.101562 -0.242188 1.28125 -0.328125 C 1.457031 -0.421875 1.5625 -0.613281 1.59375 -0.90625 L 1.578125 -10.59375 C 1.578125 -10.96875 1.488281 -11.203125 1.3125 -11.296875 C 1.144531 -11.398438 0.867188 -11.453125 0.484375 -11.453125 L 0.484375 -11.65625 L 8.75 -11.65625 L 9.59375 -9.140625 L 9.390625 -9.140625 C 9.203125 -9.742188 8.984375 -10.210938 8.734375 -10.546875 C 8.492188 -10.890625 8.179688 -11.125 7.796875 -11.25 C 7.421875 -11.375 6.925781 -11.4375 6.3125 -11.4375 C 5.550781 -11.4375 4.957031 -11.414062 4.53125 -11.375 C 4.101562 -11.34375 3.800781 -11.265625 3.625 -11.140625 C 3.445312 -11.023438 3.359375 -10.84375 3.359375 -10.59375 L 3.359375 -6.21875 L 5.203125 -6.21875 C 5.773438 -6.226562 6.191406 -6.320312 6.453125 -6.5 C 6.710938 -6.6875 6.875 -6.960938 6.9375 -7.328125 C 7.007812 -7.691406 7.046875 -8.140625 7.046875 -8.671875 L 7.25 -8.671875 L 7.25 -3.375 L 7.046875 -3.375 C 7.046875 -3.914062 7.015625 -4.382812 6.953125 -4.78125 C 6.898438 -5.175781 6.75 -5.476562 6.5 -5.6875 C 6.25 -5.90625 5.816406 -6.015625 5.203125 -6.015625 L 3.359375 -6.015625 L 3.359375 -1.078125 C 3.359375 -0.710938 3.507812 -0.472656 3.8125 -0.359375 C 4.125 -0.253906 4.6875 -0.203125 5.5 -0.203125 C 6.414062 -0.203125 7.164062 -0.394531 7.75 -0.78125 C 8.332031 -1.175781 8.800781 -1.707031 9.15625 -2.375 C 9.519531 -3.039062 9.820312 -3.78125 10.0625 -4.59375 L 10.265625 -4.59375 L 9.140625 0 Z M 0.484375 0 "/></g></g></g><g fill="#ffffff" fill-opacity="1"><g transform="translate(309.362774, 226.955435)"><g><path d="M 0.796875 0 L 0.796875 -4.796875 L 1.015625 -4.796875 C 1.015625 -3.734375 1.164062 -2.863281 1.46875 -2.1875 C 1.78125 -1.507812 2.203125 -1.007812 2.734375 -0.6875 C 3.265625 -0.363281 3.859375 -0.203125 4.515625 -0.203125 C 4.921875 -0.203125 5.289062 -0.265625 5.625 -0.390625 C 5.957031 -0.515625 6.222656 -0.71875 6.421875 -1 C 6.628906 -1.28125 6.734375 -1.65625 6.734375 -2.125 C 6.734375 -2.570312 6.59375 -2.984375 6.3125 -3.359375 C 6.03125 -3.734375 5.660156 -4.085938 5.203125 -4.421875 C 4.753906 -4.765625 4.28125 -5.101562 3.78125 -5.4375 C 3.28125 -5.78125 2.800781 -6.132812 2.34375 -6.5 C 1.882812 -6.863281 1.515625 -7.253906 1.234375 -7.671875 C 0.953125 -8.097656 0.8125 -8.570312 0.8125 -9.09375 C 0.8125 -9.707031 0.976562 -10.21875 1.3125 -10.625 C 1.65625 -11.03125 2.082031 -11.332031 2.59375 -11.53125 C 3.101562 -11.738281 3.617188 -11.84375 4.140625 -11.84375 C 4.546875 -11.84375 4.890625 -11.800781 5.171875 -11.71875 C 5.453125 -11.632812 5.691406 -11.535156 5.890625 -11.421875 C 6.097656 -11.316406 6.285156 -11.222656 6.453125 -11.140625 C 6.617188 -11.066406 6.78125 -11.03125 6.9375 -11.03125 C 7.15625 -11.03125 7.300781 -11.078125 7.375 -11.171875 C 7.445312 -11.265625 7.484375 -11.425781 7.484375 -11.65625 L 7.703125 -11.65625 L 7.703125 -7.890625 L 7.484375 -7.890625 C 7.484375 -8.597656 7.347656 -9.222656 7.078125 -9.765625 C 6.804688 -10.304688 6.4375 -10.722656 5.96875 -11.015625 C 5.5 -11.316406 4.96875 -11.46875 4.375 -11.46875 C 3.726562 -11.46875 3.265625 -11.316406 2.984375 -11.015625 C 2.710938 -10.710938 2.578125 -10.328125 2.578125 -9.859375 C 2.578125 -9.335938 2.710938 -8.875 2.984375 -8.46875 C 3.265625 -8.070312 3.625 -7.707031 4.0625 -7.375 C 4.5 -7.050781 4.960938 -6.734375 5.453125 -6.421875 C 5.941406 -6.117188 6.40625 -5.789062 6.84375 -5.4375 C 7.28125 -5.09375 7.640625 -4.707031 7.921875 -4.28125 C 8.203125 -3.851562 8.34375 -3.351562 8.34375 -2.78125 C 8.34375 -2.238281 8.234375 -1.742188 8.015625 -1.296875 C 7.796875 -0.847656 7.425781 -0.488281 6.90625 -0.21875 C 6.394531 0.0507812 5.6875 0.1875 4.78125 0.1875 C 4.34375 0.1875 3.972656 0.148438 3.671875 0.078125 C 3.378906 0.00390625 3.125 -0.0820312 2.90625 -0.1875 C 2.6875 -0.289062 2.484375 -0.378906 2.296875 -0.453125 C 2.117188 -0.523438 1.9375 -0.5625 1.75 -0.5625 C 1.257812 -0.5625 1.015625 -0.375 1.015625 0 Z M 0.796875 0 "/></g></g></g><path stroke-linecap="butt" transform="matrix(0.75, 0, 0, 0.75, 37.500002, 185.999988)" fill="none" stroke-linejoin="miter" d="M -0.00000271667 2.000016 L 400.000024 2.000016 " stroke="#ffffff" stroke-width="4" stroke-opacity="1" stroke-miterlimit="4"/></svg>